<?xml version="1.0" encoding="UTF-8"?>
<svg version="1.1" xmlns="http://www.w3.org/2000/svg" width="1024" height="1024">
<path d="M0 0 C0.75826584 -0.0049649 1.51653168 -0.00992981 2.29777527 -0.01504517 C4.80236729 -0.0296302 7.30689595 -0.03646327 9.81152344 -0.04199219 C11.55784099 -0.04774739 13.30415854 -0.05350508 15.05047607 -0.05926514 C18.71220188 -0.06976523 22.3739058 -0.07561414 26.03564453 -0.07910156 C30.71393527 -0.08457906 35.39193391 -0.1085953 40.07013321 -0.13707352 C43.67851591 -0.15575461 47.28682908 -0.16090844 50.89525604 -0.16243744 C52.61913395 -0.165453 54.34301095 -0.1734443 56.06684113 -0.18662262 C58.48618885 -0.20379533 60.90483378 -0.2017757 63.32421875 -0.1953125 C64.37971169 -0.20913467 64.37971169 -0.20913467 65.45652771 -0.22323608 C71.75116675 -0.1709089 76.97457937 1.39750744 82.10839844 5.09863281 C87.27730161 11.94393701 89.52411719 20.16870487 91.61230469 28.37988281 C92.80090359 32.46820367 94.48840804 36.30222652 96.17089844 40.20800781 C97.68864091 43.7936744 99.00708887 47.43003658 100.31933594 51.09472656 C101.68495297 54.89617822 103.07783548 58.68679427 104.48339844 62.47363281 C104.72888428 63.14362305 104.97437012 63.81361328 105.22729492 64.50390625 C106.72705477 68.53341177 108.48484842 72.3266782 110.42089844 76.16113281 C110.93617295 77.56506918 111.41916576 78.98158051 111.85839844 80.41113281 C113.19575865 84.58425681 114.78693583 88.61010215 116.44433594 92.66503906 C117.67786274 95.81793356 118.71210951 99.01676401 119.70996094 102.25097656 C120.44207967 104.44167249 120.44207967 104.44167249 122.42089844 107.16113281 C122.92076352 108.47945831 123.37535743 109.8154016 123.79589844 111.16113281 C126.3591634 119.10854226 129.29077487 126.89406946 132.42089844 134.63378906 C134.54356098 139.99848698 136.45636906 145.44326866 138.38574219 150.87988281 C140.06589072 155.57620159 141.83694391 160.1985492 143.79589844 164.78613281 C146.20737815 170.47990435 148.27536083 176.2637308 150.27783203 182.11083984 C151.81062804 186.55815146 153.53450971 190.85157807 155.42089844 195.16113281 C156.07331814 196.78349967 156.71985375 198.40825494 157.35839844 200.03613281 C158.96934767 204.09128088 160.68741839 208.08284825 162.49121094 212.05566406 C163.52749889 214.40255149 164.47429524 216.77669673 165.42089844 219.16113281 C167.7194047 224.75885554 170.03074562 230.3443176 172.54589844 235.84863281 C174.19113761 239.5025174 175.46997029 243.20421906 176.70605469 247.01269531 C177.76561969 250.1971803 178.91739972 253.15413537 180.42089844 256.16113281 C183.12086869 257.0611229 184.7236078 257.29586054 187.49902344 257.32226562 C188.72806396 257.33667694 188.72806396 257.33667694 189.98193359 257.35137939 C191.31297119 257.35775421 191.31297119 257.35775421 192.67089844 257.36425781 C193.59821777 257.36995789 194.52553711 257.37565796 195.48095703 257.38153076 C197.45474101 257.39098992 199.42854085 257.39751837 201.40234375 257.40136719 C204.35414544 257.41091685 207.30520246 257.44186279 210.25683594 257.47363281 C235.91933184 257.61568985 261.00545456 254.25115068 279.99511719 235.61425781 C280.795625 234.80472656 281.59613281 233.99519531 282.42089844 233.16113281 C282.96359375 232.67644531 283.50628906 232.19175781 284.06542969 231.69238281 C287.43220957 227.88898882 289.2577943 222.71440727 291.42089844 218.16113281 C291.95714844 217.04738281 292.49339844 215.93363281 293.04589844 214.78613281 C296.31730462 206.16151652 298.76038308 197.60581123 299.24511719 188.36816406 C299.42089844 186.16113281 299.42089844 186.16113281 300.42089844 183.16113281 C302.33172914 155.67679826 299.82693499 127.36087668 281.62011719 105.51269531 C266.58379284 89.43477834 245.23576234 82.9982697 223.67333984 82.23291016 C222.93003418 82.20922363 222.18672852 82.18553711 221.42089844 82.16113281 C220.41333496 82.1232666 219.40577148 82.08540039 218.36767578 82.04638672 C214.84381894 81.92767257 211.3211155 81.8520404 207.79589844 81.78613281 C206.6321167 81.74786377 205.46833496 81.70959473 204.26928711 81.67016602 C203.17205322 81.65945068 202.07481934 81.64873535 200.94433594 81.63769531 C199.95353027 81.61787598 198.96272461 81.59805664 197.94189453 81.57763672 C195.24873881 81.92012216 195.24873881 81.92012216 193.7858839 84.28512859 C192.16903602 87.69180321 192.0511672 89.9972578 192.06013489 93.76069641 C192.05757161 94.41016981 192.05500834 95.05964321 192.05236739 95.72879761 C192.0474405 97.8970093 192.06390331 100.06451889 192.08032227 102.23266602 C192.08116878 103.79003381 192.08069292 105.3474028 192.07899475 106.9047699 C192.07813432 111.12758473 192.09576782 115.35014371 192.11671662 119.5728991 C192.1354754 123.98781044 192.13723323 128.40272769 192.14079285 132.81767273 C192.15011566 141.17573104 192.17473265 149.53367158 192.20484132 157.89167804 C192.23837796 167.40792038 192.25486949 176.92416835 192.26992762 186.44045508 C192.30128199 206.01408005 192.3540471 225.58759901 192.42089844 245.16113281 C190.77089844 245.49113281 189.12089844 245.82113281 187.42089844 246.16113281 C184.71361947 240.93918761 182.14516256 235.76698028 180.16699219 230.22363281 C179.30674889 227.84557805 178.3680869 225.50587104 177.42089844 223.16113281 C172.42089844 210.69959435 172.42089844 210.69959435 172.42089844 208.16113281 C171.76089844 208.16113281 171.10089844 208.16113281 170.42089844 208.16113281 C170.16566406 207.25234375 170.16566406 207.25234375 169.90527344 206.32519531 C168.10358747 200.09596191 165.90819501 194.14560578 163.42089844 188.16113281 C160.99431083 182.32272653 158.88898942 176.53637475 157.13183594 170.46191406 C156.13827034 167.24647374 154.79203674 164.23248261 153.42089844 161.16113281 C151.05323598 155.49309238 148.90566178 149.76499037 146.85839844 143.97363281 C145.19671888 139.27736163 143.43469648 134.71406751 141.42089844 130.16113281 C138.52668591 123.22260584 135.99693744 116.18010059 133.56933594 109.06738281 C132.61593021 106.09099374 132.61593021 106.09099374 130.42089844 104.16113281 C129.67480469 102.31347656 129.67480469 102.31347656 128.98339844 100.09863281 C128.73074219 99.30199219 128.47808594 98.50535156 128.21777344 97.68457031 C127.95480469 96.85183594 127.69183594 96.01910156 127.42089844 95.16113281 C126.60849579 92.77562321 125.79124904 90.39184457 124.97167969 88.00878906 C124.42089844 86.16113281 124.42089844 86.16113281 124.42089844 84.16113281 C123.76089844 84.16113281 123.10089844 84.16113281 122.42089844 84.16113281 C122.29972656 83.53464844 122.17855469 82.90816406 122.05371094 82.26269531 C121.88613281 81.44542969 121.71855469 80.62816406 121.54589844 79.78613281 C121.30226563 78.56796875 121.30226563 78.56796875 121.05371094 77.32519531 C120.55430912 74.97439359 120.55430912 74.97439359 118.42089844 73.16113281 C117.87777407 71.47204448 117.40807234 69.75882128 116.98339844 68.03613281 C115.93545367 64.00154547 114.75773178 60.14179601 113.24121094 56.26269531 C107.65366442 41.94793329 100.65955269 23.66857138 105.42089844 8.16113281 C108.56905965 3.90185587 112.39687525 1.66227721 117.42089844 0.16113281 C120.74003184 -0.24809558 124.02130212 -0.23930821 127.36230469 -0.21118164 C128.33765671 -0.21483231 129.31300873 -0.21848297 130.31791687 -0.22224426 C133.53992222 -0.2303386 136.76142186 -0.21672478 139.98339844 -0.20214844 C142.2532552 -0.2016287 144.52311242 -0.20215078 146.79296875 -0.20365906 C151.56435834 -0.20356932 156.3355791 -0.19315455 161.10693359 -0.17504883 C167.12793813 -0.15266815 173.14869203 -0.15195019 179.16972637 -0.15829849 C249.46810978 -0.21451751 249.46810978 -0.21451751 271.42089844 6.16113281 C272.52949219 6.48210937 273.63808594 6.80308594 274.78027344 7.13378906 C281.58433484 9.2665342 288.00920349 12.05814675 294.42089844 15.16113281 C295.57074219 15.71027344 296.72058594 16.25941406 297.90527344 16.82519531 C311.98382271 23.63421773 323.52387053 32.64757991 335.10839844 43.09863281 C335.63796143 43.57131592 336.16752441 44.04399902 336.71313477 44.53100586 C337.98904488 45.69880596 339.2105873 46.92547484 340.42089844 48.16113281 C340.42089844 48.82113281 340.42089844 49.48113281 340.42089844 50.16113281 C341.41089844 50.49113281 342.40089844 50.82113281 343.42089844 51.16113281 C360.86459273 69.80902691 372.20269869 91.87331961 379.49121094 116.11816406 C380.07567727 118.03118621 380.70747039 119.93101062 381.40527344 121.80566406 C393.65593156 162.27995377 387.85949816 214.14904421 368.42089844 251.16113281 C367.60298828 252.8665625 367.60298828 252.8665625 366.76855469 254.60644531 C363.92295681 260.53981961 360.73030973 265.89133992 356.83886719 271.20019531 C355.38289194 273.10239092 355.38289194 273.10239092 354.42089844 275.16113281 C353.76089844 275.16113281 353.10089844 275.16113281 352.42089844 275.16113281 C352.16824219 275.73089844 351.91558594 276.30066406 351.65527344 276.88769531 C349.10057259 281.59287219 345.07795305 285.29259482 341.42089844 289.16113281 C340.91478027 289.70125 340.40866211 290.24136719 339.88720703 290.79785156 C319.72307679 312.16608415 295.19790895 327.39899019 266.42089844 334.16113281 C265.67759277 334.33628418 264.93428711 334.51143555 264.16845703 334.69189453 C261.67383519 335.26742183 259.17436433 335.81295144 256.67089844 336.34863281 C255.92203369 336.51588867 255.17316895 336.68314453 254.40161133 336.85546875 C238.03289584 340.16848993 220.70118055 339.32355884 204.08886719 339.32910156 C201.79486572 339.33232282 199.50086446 339.33568751 197.2068634 339.33918762 C192.43925499 339.34512608 187.67166458 339.34703251 182.90405273 339.34643555 C176.79554969 339.34633307 170.68716065 339.36009646 164.57868481 339.37720776 C159.85955776 339.38830743 155.14045873 339.39035555 150.42131996 339.38982582 C148.16745923 339.39100471 145.91359775 339.39542138 143.65974998 339.40315819 C140.52300185 339.41293669 137.38650793 339.41009077 134.24975586 339.40405273 C133.32353424 339.40967224 132.39731262 339.41529175 131.44302368 339.42108154 C125.52789168 339.3920945 121.54881452 338.92574615 116.85839844 335.03613281 C110.61895677 327.67679136 108.2778598 318.18472405 105.35839844 309.16113281 C100.77529259 294.77102184 100.77529259 294.77102184 95.10839844 280.78613281 C94.74101562 279.95339844 94.37363281 279.12066406 93.99511719 278.26269531 C91.76753129 275.28889578 90.03705544 275.06146132 86.42089844 274.16113281 C82.94062777 273.87890841 79.47457315 273.88781571 75.984375 273.90234375 C74.42707672 273.89708679 74.42707672 273.89708679 72.83831787 273.89172363 C69.4126513 273.88293533 65.98719205 273.88874707 62.56152344 273.89550781 C60.17266806 273.89415992 57.78381294 273.89221835 55.3949585 273.88970947 C50.3882791 273.88676179 45.38167109 273.89104298 40.375 273.90039062 C33.97517302 273.91176015 27.57551426 273.90523919 21.17569351 273.8932457 C16.2410151 273.88599644 11.30637612 273.88832952 6.37169647 273.89350128 C4.01311981 273.89483059 1.65453951 273.89321539 -0.7040329 273.88854218 C-4.01111741 273.88342931 -7.3179352 273.89125499 -10.625 273.90234375 C-11.58950073 273.89829529 -12.55400146 273.89424683 -13.54772949 273.89007568 C-19.61652875 273.92752998 -25.78640764 274.19166622 -31.57910156 276.16113281 C-33.7366942 278.65374274 -33.7366942 278.65374274 -34.56738281 281.95410156 C-34.96111084 283.13528564 -35.35483887 284.31646973 -35.76049805 285.53344727 C-36.13376221 286.7924585 -36.50702637 288.05146973 -36.89160156 289.34863281 C-37.30571715 290.63530618 -37.7237811 291.92071535 -38.14575195 293.20483398 C-39.33184044 296.84435385 -40.45417983 300.50224332 -41.57910156 304.16113281 C-42.33956469 306.49532032 -43.11612179 308.82299912 -43.90209961 311.14868164 C-44.46513493 312.82078695 -45.00569326 314.50041716 -45.54394531 316.18066406 C-46.72669299 319.58608473 -48.14413875 322.85497848 -49.57910156 326.16113281 C-50.09112394 327.55260102 -50.59380246 328.94762051 -51.07910156 330.34863281 C-52.19876819 333.35773687 -53.32230143 335.81029934 -55.57910156 338.16113281 C-58.88150337 339.26193341 -61.49426063 339.36823061 -64.97363281 339.47753906 C-65.62133133 339.49845612 -66.26902985 339.51937317 -66.93635559 339.54092407 C-69.08797491 339.60779176 -71.23970162 339.66654376 -73.39160156 339.72363281 C-74.1305365 339.74414703 -74.86947144 339.76466125 -75.63079834 339.78579712 C-87.31910157 340.10418784 -99.00871506 340.28913745 -110.70126343 340.33737183 C-112.35852798 340.34482833 -114.01578153 340.35546529 -115.67300415 340.36941528 C-118.00899425 340.38734694 -120.34461299 340.39144277 -122.68066406 340.39160156 C-123.36272415 340.39874176 -124.04478424 340.40588196 -124.74751282 340.41323853 C-130.13763016 340.38816453 -135.7783352 339.78738425 -140.51660156 337.03613281 C-142.37842384 333.75056409 -142.86851134 330.85978972 -142.57910156 327.16113281 C-141.01275133 321.78979907 -138.76998057 316.73541459 -136.42382812 311.66381836 C-133.52896474 305.39327808 -130.95254142 299.08289548 -128.57910156 292.59863281 C-127.80020323 290.49798292 -127.02018617 288.39774762 -126.23925781 286.29785156 C-125.81789551 285.16395996 -125.3965332 284.03006836 -124.96240234 282.86181641 C-122.34722692 275.86555288 -119.68316427 268.88794175 -117.01660156 261.91113281 C-116.73671387 261.17833099 -116.45682617 260.44552917 -116.16845703 259.69052124 C-112.56954662 250.27398883 -108.90549639 240.88857007 -105.12060547 231.54492188 C-102.82544463 225.85470661 -100.74920798 220.11348562 -98.72363281 214.32128906 C-97.22826865 210.19245082 -95.53078896 206.16422352 -93.81738281 202.12207031 C-91.88865436 197.51015811 -90.11609959 192.84106074 -88.34179688 188.16796875 C-87.46266405 185.85475753 -86.57955433 183.54308172 -85.69628906 181.23144531 C-85.01128283 179.43721662 -84.32638962 177.64294478 -83.64160156 175.84863281 C-83.29726074 174.94653076 -82.95291992 174.04442871 -82.59814453 173.11499023 C-81.01644941 168.96369367 -79.44330136 164.8100176 -77.90722656 160.64160156 C-75.45463342 153.99143521 -72.86935654 147.48263863 -69.86035156 141.05957031 C-67.41036337 135.51721898 -65.39481148 129.80187653 -63.30224609 124.1171875 C-62.22659253 121.20762088 -61.12480428 118.30844024 -60.01660156 115.41113281 C-59.6646875 114.48816406 -59.31277344 113.56519531 -58.95019531 112.61425781 C-57.7620388 109.62186363 -56.52186002 106.6608567 -55.26660156 103.69628906 C-52.59214106 97.29914173 -50.19894017 90.8144011 -47.84442139 84.29376221 C-44.41241876 74.7953261 -40.92449929 65.33681711 -37.10644531 55.98535156 C-34.98108935 50.72666369 -33.00767033 45.40923088 -31.01660156 40.09863281 C-30.62617676 39.05771484 -30.23575195 38.01679688 -29.83349609 36.94433594 C-27.76726349 31.41213643 -25.76225682 25.86606044 -23.82910156 20.28613281 C-18.68406961 5.85537539 -18.68406961 5.85537539 -14.01660156 2.09863281 C-9.29657511 0.28323802 -5.03473502 0.00790735 0 0 Z M31.42089844 114.16113281 C27.18627258 118.54178025 25.51971501 123.57173124 23.42089844 129.16113281 C22.59379245 131.26775511 21.75972879 133.3716515 20.92089844 135.47363281 C20.68056885 136.07626953 20.44023926 136.67890625 20.19262695 137.29980469 C17.60440693 143.75899946 14.94108256 150.18721058 12.2784729 156.61599731 C11.48496423 158.53235137 10.69248037 160.44912675 9.90014648 162.3659668 C7.66255762 167.77551893 5.4195865 173.18211596 3.12402344 178.56738281 C2.63470337 179.72488037 2.63470337 179.72488037 2.13549805 180.90576172 C1.55987058 182.2651461 0.97797972 183.62190684 0.38793945 184.97509766 C-1.31679249 189.01979734 -2.30946426 192.77291785 -2.57910156 197.16113281 C-0.8568366 200.40963258 -0.8568366 200.40963258 2.42089844 201.16113281 C4.27966618 201.25632529 6.14172718 201.29186326 8.00292969 201.29394531 C9.14906738 201.29612061 10.29520508 201.2982959 11.47607422 201.30053711 C13.33594971 201.29340698 13.33594971 201.29340698 15.23339844 201.28613281 C17.14354736 201.27996948 17.14354736 201.27996948 19.09228516 201.27368164 C23.20210028 201.25033327 27.31134639 201.21187096 31.42089844 201.16113281 C32.12265198 201.15253235 32.82440552 201.14393188 33.54742432 201.1350708 C37.71727404 201.07998266 41.88589599 201.00220882 46.05477905 200.89666748 C48.02273547 200.84919161 49.99099552 200.8148979 51.95922852 200.78076172 C53.15572021 200.74515137 54.35221191 200.70954102 55.58496094 200.67285156 C56.64150879 200.64666748 57.69805664 200.6204834 58.78662109 200.59350586 C61.45022766 200.36682937 61.45022766 200.36682937 63.28149414 198.7512207 C64.59953401 197.22221943 64.59953401 197.22221943 64.48730469 195.20800781 C63.00298356 188.442265 60.56948177 182.17392292 57.92089844 175.79785156 C56.72286288 172.89323932 55.59948522 169.99464213 54.54589844 167.03613281 C52.57516922 161.52968354 50.50201863 156.06407582 48.42089844 150.59863281 C48.08848145 149.72384277 47.75606445 148.84905273 47.41357422 147.94775391 C45.74825676 143.58090325 44.05483665 139.22795103 42.31152344 134.89160156 C40.86589327 131.29485391 39.48076238 127.68503952 38.17089844 124.03613281 C37.83574219 123.10542969 37.50058594 122.17472656 37.15527344 121.21582031 C36.91292969 120.53777344 36.67058594 119.85972656 36.42089844 119.16113281 C35.76089844 119.16113281 35.10089844 119.16113281 34.42089844 119.16113281 C33.76089844 117.51113281 33.10089844 115.86113281 32.42089844 114.16113281 C32.09089844 114.16113281 31.76089844 114.16113281 31.42089844 114.16113281 Z " fill="#098FD7" transform="translate(389.5791015625,341.8388671875)"/>
<path d="M0 0 C0.75826584 -0.0049649 1.51653168 -0.00992981 2.29777527 -0.01504517 C4.80236729 -0.0296302 7.30689595 -0.03646327 9.81152344 -0.04199219 C11.55784099 -0.04774739 13.30415854 -0.05350508 15.05047607 -0.05926514 C18.71220188 -0.06976523 22.3739058 -0.07561414 26.03564453 -0.07910156 C30.71393527 -0.08457906 35.39193391 -0.1085953 40.07013321 -0.13707352 C43.67851591 -0.15575461 47.28682908 -0.16090844 50.89525604 -0.16243744 C52.61913395 -0.165453 54.34301095 -0.1734443 56.06684113 -0.18662262 C58.48618885 -0.20379533 60.90483378 -0.2017757 63.32421875 -0.1953125 C64.37971169 -0.20913467 64.37971169 -0.20913467 65.45652771 -0.22323608 C71.75116675 -0.1709089 76.97457937 1.39750744 82.10839844 5.09863281 C87.27730161 11.94393701 89.52411719 20.16870487 91.61230469 28.37988281 C92.80090359 32.46820367 94.48840804 36.30222652 96.17089844 40.20800781 C97.68864091 43.7936744 99.00708887 47.43003658 100.31933594 51.09472656 C101.68495297 54.89617822 103.07783548 58.68679427 104.48339844 62.47363281 C104.72888428 63.14362305 104.97437012 63.81361328 105.22729492 64.50390625 C106.72705477 68.53341177 108.48484842 72.3266782 110.42089844 76.16113281 C110.93617295 77.56506918 111.41916576 78.98158051 111.85839844 80.41113281 C113.19575865 84.58425681 114.78693583 88.61010215 116.44433594 92.66503906 C117.67786274 95.81793356 118.71210951 99.01676401 119.70996094 102.25097656 C120.44207967 104.44167249 120.44207967 104.44167249 122.42089844 107.16113281 C122.92076352 108.47945831 123.37535743 109.8154016 123.79589844 111.16113281 C126.3591634 119.10854226 129.29077487 126.89406946 132.42089844 134.63378906 C134.54356098 139.99848698 136.45636906 145.44326866 138.38574219 150.87988281 C140.06589072 155.57620159 141.83694391 160.1985492 143.79589844 164.78613281 C146.20737815 170.47990435 148.27536083 176.2637308 150.27783203 182.11083984 C151.81062804 186.55815146 153.53450971 190.85157807 155.42089844 195.16113281 C156.07331814 196.78349967 156.71985375 198.40825494 157.35839844 200.03613281 C158.96934767 204.09128088 160.68741839 208.08284825 162.49121094 212.05566406 C163.52749889 214.40255149 164.47429524 216.77669673 165.42089844 219.16113281 C167.7194047 224.75885554 170.03074562 230.3443176 172.54589844 235.84863281 C174.19113761 239.5025174 175.46997029 243.20421906 176.70605469 247.01269531 C177.76561969 250.1971803 178.91739972 253.15413537 180.42089844 256.16113281 C183.12086869 257.0611229 184.7236078 257.29586054 187.49902344 257.32226562 C188.72806396 257.33667694 188.72806396 257.33667694 189.98193359 257.35137939 C191.31297119 257.35775421 191.31297119 257.35775421 192.67089844 257.36425781 C193.59821777 257.36995789 194.52553711 257.37565796 195.48095703 257.38153076 C197.45474101 257.39098992 199.42854085 257.39751837 201.40234375 257.40136719 C204.35414544 257.41091685 207.30520246 257.44186279 210.25683594 257.47363281 C235.91933184 257.61568985 261.00545456 254.25115068 279.99511719 235.61425781 C280.795625 234.80472656 281.59613281 233.99519531 282.42089844 233.16113281 C282.96359375 232.67644531 283.50628906 232.19175781 284.06542969 231.69238281 C287.43220957 227.88898882 289.2577943 222.71440727 291.42089844 218.16113281 C291.95714844 217.04738281 292.49339844 215.93363281 293.04589844 214.78613281 C296.31730462 206.16151652 298.76038308 197.60581123 299.24511719 188.36816406 C299.42089844 186.16113281 299.42089844 186.16113281 300.42089844 183.16113281 C302.33172914 155.67679826 299.82693499 127.36087668 281.62011719 105.51269531 C266.58379284 89.43477834 245.23576234 82.9982697 223.67333984 82.23291016 C222.93003418 82.20922363 222.18672852 82.18553711 221.42089844 82.16113281 C220.41333496 82.1232666 219.40577148 82.08540039 218.36767578 82.04638672 C214.84381894 81.92767257 211.3211155 81.8520404 207.79589844 81.78613281 C206.6321167 81.74786377 205.46833496 81.70959473 204.26928711 81.67016602 C203.17205322 81.65945068 202.07481934 81.64873535 200.94433594 81.63769531 C199.95353027 81.61787598 198.96272461 81.59805664 197.94189453 81.57763672 C195.24873881 81.92012216 195.24873881 81.92012216 193.7858839 84.28512859 C192.16903602 87.69180321 192.0511672 89.9972578 192.06013489 93.76069641 C192.05757161 94.41016981 192.05500834 95.05964321 192.05236739 95.72879761 C192.0474405 97.8970093 192.06390331 100.06451889 192.08032227 102.23266602 C192.08116878 103.79003381 192.08069292 105.3474028 192.07899475 106.9047699 C192.07813432 111.12758473 192.09576782 115.35014371 192.11671662 119.5728991 C192.1354754 123.98781044 192.13723323 128.40272769 192.14079285 132.81767273 C192.15011566 141.17573104 192.17473265 149.53367158 192.20484132 157.89167804 C192.23837796 167.40792038 192.25486949 176.92416835 192.26992762 186.44045508 C192.30128199 206.01408005 192.3540471 225.58759901 192.42089844 245.16113281 C190.77089844 245.49113281 189.12089844 245.82113281 187.42089844 246.16113281 C184.71361947 240.93918761 182.14516256 235.76698028 180.16699219 230.22363281 C179.30674889 227.84557805 178.3680869 225.50587104 177.42089844 223.16113281 C172.42089844 210.69959435 172.42089844 210.69959435 172.42089844 208.16113281 C171.76089844 208.16113281 171.10089844 208.16113281 170.42089844 208.16113281 C170.16566406 207.25234375 170.16566406 207.25234375 169.90527344 206.32519531 C168.10358747 200.09596191 165.90819501 194.14560578 163.42089844 188.16113281 C160.99431083 182.32272653 158.88898942 176.53637475 157.13183594 170.46191406 C156.13827034 167.24647374 154.79203674 164.23248261 153.42089844 161.16113281 C151.05323598 155.49309238 148.90566178 149.76499037 146.85839844 143.97363281 C145.19671888 139.27736163 143.43469648 134.71406751 141.42089844 130.16113281 C138.52668591 123.22260584 135.99693744 116.18010059 133.56933594 109.06738281 C132.61593021 106.09099374 132.61593021 106.09099374 130.42089844 104.16113281 C129.67480469 102.31347656 129.67480469 102.31347656 128.98339844 100.09863281 C128.73074219 99.30199219 128.47808594 98.50535156 128.21777344 97.68457031 C127.95480469 96.85183594 127.69183594 96.01910156 127.42089844 95.16113281 C126.60849579 92.77562321 125.79124904 90.39184457 124.97167969 88.00878906 C124.42089844 86.16113281 124.42089844 86.16113281 124.42089844 84.16113281 C123.76089844 84.16113281 123.10089844 84.16113281 122.42089844 84.16113281 C122.29972656 83.53464844 122.17855469 82.90816406 122.05371094 82.26269531 C121.88613281 81.44542969 121.71855469 80.62816406 121.54589844 79.78613281 C121.30226563 78.56796875 121.30226563 78.56796875 121.05371094 77.32519531 C120.55430912 74.97439359 120.55430912 74.97439359 118.42089844 73.16113281 C117.87777407 71.47204448 117.40807234 69.75882128 116.98339844 68.03613281 C115.93545367 64.00154547 114.75773178 60.14179601 113.24121094 56.26269531 C107.65366442 41.94793329 100.65955269 23.66857138 105.42089844 8.16113281 C108.56905965 3.90185587 112.39687525 1.66227721 117.42089844 0.16113281 C120.74003184 -0.24809558 124.02130212 -0.23930821 127.36230469 -0.21118164 C128.33765671 -0.21483231 129.31300873 -0.21848297 130.31791687 -0.22224426 C133.53992222 -0.2303386 136.76142186 -0.21672478 139.98339844 -0.20214844 C142.2532552 -0.2016287 144.52311242 -0.20215078 146.79296875 -0.20365906 C151.56435834 -0.20356932 156.3355791 -0.19315455 161.10693359 -0.17504883 C167.12793813 -0.15266815 173.14869203 -0.15195019 179.16972637 -0.15829849 C249.46810978 -0.21451751 249.46810978 -0.21451751 271.42089844 6.16113281 C272.52949219 6.48210937 273.63808594 6.80308594 274.78027344 7.13378906 C281.58433484 9.2665342 288.00920349 12.05814675 294.42089844 15.16113281 C295.57074219 15.71027344 296.72058594 16.25941406 297.90527344 16.82519531 C311.98382271 23.63421773 323.52387053 32.64757991 335.10839844 43.09863281 C335.63796143 43.57131592 336.16752441 44.04399902 336.71313477 44.53100586 C337.98904488 45.69880596 339.2105873 46.92547484 340.42089844 48.16113281 C340.42089844 48.82113281 340.42089844 49.48113281 340.42089844 50.16113281 C341.41089844 50.49113281 342.40089844 50.82113281 343.42089844 51.16113281 C360.86459273 69.80902691 372.20269869 91.87331961 379.49121094 116.11816406 C380.07567727 118.03118621 380.70747039 119.93101062 381.40527344 121.80566406 C393.65593156 162.27995377 387.85949816 214.14904421 368.42089844 251.16113281 C367.60298828 252.8665625 367.60298828 252.8665625 366.76855469 254.60644531 C363.92295681 260.53981961 360.73030973 265.89133992 356.83886719 271.20019531 C355.38289194 273.10239092 355.38289194 273.10239092 354.42089844 275.16113281 C353.76089844 275.16113281 353.10089844 275.16113281 352.42089844 275.16113281 C352.16824219 275.73089844 351.91558594 276.30066406 351.65527344 276.88769531 C349.10057259 281.59287219 345.07795305 285.29259482 341.42089844 289.16113281 C340.91478027 289.70125 340.40866211 290.24136719 339.88720703 290.79785156 C311.95223979 320.4009572 275.48986433 336.32316118 234.97558594 339.27832031 C232.42089844 339.16113281 232.42089844 339.16113281 230.42089844 337.16113281 C231.33077515 337.0719458 231.33077515 337.0719458 232.2590332 336.98095703 C271.68212263 332.96581353 305.38055714 320.65826757 334.42089844 293.16113281 C335.23171875 292.40316406 336.04253906 291.64519531 336.87792969 290.86425781 C367.72914453 261.13048855 382.82747222 218.42541216 383.75683594 176.04003906 C383.79689933 173.26758617 383.80376979 170.49633564 383.79589844 167.72363281 C383.79535461 166.99223083 383.79481079 166.26082886 383.79425049 165.50726318 C383.64101536 120.25876817 367.42846876 80.71908165 336.42089844 48.16113281 C335.42316406 47.08412109 335.42316406 47.08412109 334.40527344 45.98535156 C306.58394643 16.81971674 264.44837803 3.73705686 225.05224228 2.6931076 C218.98181546 2.6072464 212.91364407 2.60756177 206.84277344 2.62988281 C204.20387632 2.62717912 201.56498018 2.62328948 198.92608643 2.61828613 C193.45715034 2.61110293 187.98843372 2.6203684 182.51953125 2.63964844 C176.21485594 2.66161926 169.91069419 2.65418424 163.60603023 2.63234282 C157.48381814 2.61199389 151.36183293 2.61415089 145.23960114 2.62586975 C142.65443092 2.62853203 140.06924745 2.62528491 137.48409271 2.61595154 C133.89073009 2.6058016 130.29836618 2.62125682 126.70507812 2.64355469 C125.11557343 2.6314093 125.11557343 2.6314093 123.49395752 2.61901855 C117.51207417 2.68784081 113.95954957 3.13192091 109.42089844 7.16113281 C104.77154661 16.45983646 107.09454761 31.59417906 110.09580994 41.234375 C112.86868751 49.46871225 116.20125387 57.50137055 119.52246094 65.52636719 C121.3966554 70.06959406 123.17323678 74.64607917 124.92089844 79.23925781 C125.21057495 80.00028809 125.50025146 80.76131836 125.79870605 81.54541016 C126.3921318 83.1053095 126.98535088 84.66528749 127.57836914 86.2253418 C129.12729496 90.28714591 130.6966862 94.34102289 132.26464844 98.39550781 C135.29433605 106.23586572 138.31344834 114.08024112 141.32714844 121.92675781 C145.97649583 134.03167477 150.6331992 146.1337441 155.29400635 158.23425293 C156.33638734 160.94163191 157.3776555 163.64943539 158.41845703 166.35742188 C165.78453066 185.51625476 173.37548201 204.56563635 181.26953125 223.51391602 C181.59860474 224.3075354 181.92767822 225.10115479 182.26672363 225.91882324 C182.87860603 227.3941423 183.49351672 228.86821093 184.11218262 230.34069824 C185.8591292 234.56008113 187.24535503 238.74710368 188.42089844 243.16113281 C189.08089844 243.16113281 189.74089844 243.16113281 190.42089844 243.16113281 C190.41628947 242.34629834 190.41168051 241.53146387 190.40693188 240.69193745 C190.29653736 220.87039373 190.21378308 201.04890295 190.16183758 181.22711658 C190.13604975 171.64145179 190.10088819 162.05599212 190.04370117 152.47045898 C189.99388389 144.11624299 189.96161163 135.76217555 189.95045596 127.40781516 C189.94393433 122.983668 189.9285949 118.55994584 189.89224815 114.13593483 C189.85831496 109.97196513 189.84783992 105.80859556 189.85536003 101.64450073 C189.85398427 100.11625088 189.84403529 98.587981 189.82487106 97.05985069 C189.79997196 94.9720508 189.80597813 92.88651306 189.81962585 90.79866028 C189.81501689 89.63074857 189.81040792 88.46283686 189.80565929 87.25953388 C190.61232513 83.19709032 192.21462513 81.70046006 195.42089844 79.16113281 C198.80810547 78.63769531 198.80810547 78.63769531 202.67871094 78.78613281 C203.72339539 78.8173951 203.72339539 78.8173951 204.78918457 78.84928894 C207.04349592 78.92553402 209.29352762 79.0410641 211.54589844 79.16113281 C213.09844315 79.2285683 214.6510151 79.29537937 216.20361328 79.36157227 C243.19386979 80.61404877 265.94295549 85.33468059 285.27246094 105.63378906 C303.31791151 126.86180092 305.00937391 157.23959425 302.9050293 183.78515625 C301.25975846 201.79907056 296.6553086 218.69525186 285.42089844 233.16113281 C284.96070313 233.78632812 284.50050781 234.41152344 284.02636719 235.05566406 C273.63305478 248.32435973 255.87227863 256.27488302 239.46435547 258.49316406 C227.08672242 259.93884301 214.7949203 260.52254594 202.33935547 260.63491821 C200.48054244 260.65236185 198.62178553 260.67754072 196.76318359 260.71054077 C194.13020416 260.75214481 191.49947062 260.75886986 188.86621094 260.75488281 C188.07248077 260.77114212 187.27875061 260.78740143 186.46096802 260.80415344 C182.71345769 260.75756095 180.84726776 260.55269022 178.04370117 257.97802734 C176.43509756 255.18577995 175.1535672 252.50958792 174.01074219 249.49707031 C173.36008789 247.80904297 173.36008789 247.80904297 172.69628906 246.08691406 C172.25478516 244.91515625 171.81328125 243.74339844 171.35839844 242.53613281 C170.49497748 240.27217056 169.62894606 238.00920269 168.76074219 235.74707031 C168.52242676 235.12477539 168.28411133 234.50248047 168.03857422 233.86132812 C165.51862315 227.32672603 162.85406554 220.85236097 160.19824219 214.37207031 C154.63811099 200.7847521 149.31042647 187.11522037 144.04589844 173.41113281 C143.33421434 171.56266214 142.62252735 169.71419258 141.91062832 167.86580467 C133.0218093 144.7849667 124.19761457 121.67939234 115.39149475 98.56689453 C112.41656672 90.76263638 109.42929074 82.96316567 106.43614006 75.16588211 C104.78060177 70.85184114 103.12761106 66.53682291 101.47415161 62.22198486 C100.5828806 59.89822367 99.69041819 57.57491899 98.79660034 55.25213623 C97.54698003 52.00430246 96.30119605 48.75503426 95.05761719 45.50488281 C94.66327988 44.47674469 94.26894257 43.44860657 93.86265564 42.38931274 C91.87836998 37.16955554 89.98426436 31.93493513 88.21630859 26.63769531 C87.86357376 25.58602173 87.51083893 24.53434814 87.14741516 23.45080566 C86.48818153 21.46504355 85.84190515 19.47491221 85.21134949 17.4798584 C83.23205359 11.50330293 81.15724067 7.64969713 75.75738525 4.05316162 C72.38037754 2.76388058 69.082588 2.88296511 65.51879883 2.90234375 C64.7264534 2.89883911 63.93410797 2.89533447 63.11775208 2.89172363 C60.50126354 2.88292882 57.88504593 2.88874806 55.26855469 2.89550781 C53.44778898 2.89416038 51.62702363 2.8922192 49.80625916 2.88970947 C45.99067763 2.88676115 42.17518977 2.891046 38.35961914 2.90039062 C33.47257803 2.91177688 28.58575681 2.90522909 23.69872379 2.8932457 C19.93861744 2.88601234 16.17856305 2.88832196 12.41845512 2.89350128 C10.61675427 2.89483411 8.81504867 2.89320291 7.01335335 2.88854218 C4.49290635 2.88345361 1.97281327 2.89122023 -0.54760742 2.90234375 C-1.29010742 2.89829529 -2.03260742 2.89424683 -2.79760742 2.89007568 C-6.82045516 2.92290592 -9.99248724 3.28345732 -13.57910156 5.16113281 C-19.27380771 12.44773696 -21.87455878 23.5508664 -25.07553101 32.1678772 C-26.94694263 37.2028975 -28.83880319 42.23024774 -30.72753906 47.25878906 C-31.12371933 48.31492905 -31.5198996 49.37106903 -31.92808533 50.45921326 C-36.31799452 62.15228732 -40.78219507 73.81652001 -45.26660156 85.47363281 C-45.67850739 86.54463226 -46.09041321 87.61563171 -46.51480103 88.71908569 C-55.4700263 111.98712768 -64.59767432 135.1870042 -73.73326111 158.38467407 C-79.43368526 172.86424246 -85.08432817 187.36317321 -90.73303223 201.86297607 C-93.00120461 207.68348291 -95.27720502 213.50089613 -97.55566406 219.31738281 C-104.71756543 237.60912054 -111.79612434 255.92913587 -118.7661438 274.29489136 C-123.44270451 286.61300786 -128.18288178 298.90379156 -133.01660156 311.16113281 C-133.29635834 311.87116455 -133.57611511 312.58119629 -133.86434937 313.31274414 C-138.37801905 324.75896778 -138.37801905 324.75896778 -139.57910156 327.16113281 C-139.95567496 330.62560804 -140.08880284 332.45672413 -138.01329041 335.3250885 C-134.68005295 337.83926142 -132.47230331 337.6623144 -128.31958008 337.6628418 C-127.59550964 337.66824478 -126.87143921 337.67364777 -126.12542725 337.67921448 C-123.73586944 337.69170464 -121.34751603 337.67520852 -118.95800781 337.65722656 C-117.29418372 337.65738156 -115.63035927 337.6588707 -113.96653748 337.66163635 C-110.48037747 337.66302052 -106.99462878 337.65046093 -103.50854492 337.62768555 C-99.04510757 337.5993227 -94.58235474 337.60203189 -90.11886692 337.61477566 C-86.68298014 337.62173946 -83.24725087 337.61393521 -79.8113842 337.60151863 C-78.16599062 337.59700938 -76.5205801 337.59666274 -74.87518501 337.60058403 C-72.57244503 337.60350263 -70.27063934 337.58695873 -67.96801758 337.56518555 C-66.00421898 337.55708107 -66.00421898 337.55708107 -64.00074768 337.54881287 C-60.33410623 337.1333743 -58.46081804 336.43180197 -55.57910156 334.16113281 C-54.24738489 331.51091243 -53.22050757 329.0908449 -52.25097656 326.31347656 C-51.95946716 325.52263168 -51.66795776 324.7317868 -51.36761475 323.91697693 C-50.42138968 321.337441 -49.49980364 318.74987636 -48.57910156 316.16113281 C-47.94179269 314.40429012 -47.30311305 312.64794409 -46.66308594 310.89208984 C-44.36611838 304.57355032 -42.08421952 298.24955162 -39.82958984 291.91577148 C-38.86305263 289.2044002 -37.88604965 286.49699499 -36.90722656 283.79003906 C-36.47123138 282.55272789 -36.47123138 282.55272789 -36.02642822 281.29042053 C-35.74893738 280.52789474 -35.47144653 279.76536896 -35.18554688 278.97973633 C-34.94684875 278.31232925 -34.70815063 277.64492218 -34.46221924 276.95729065 C-33.40757606 274.81227005 -32.44553753 273.66583621 -30.57910156 272.16113281 C-28.33701611 271.77802277 -28.33701611 271.77802277 -25.66508484 271.76672363 C-24.14473633 271.74969894 -24.14473633 271.74969894 -22.59367371 271.73233032 C-21.48244644 271.73526093 -20.37121918 271.73819153 -19.22631836 271.74121094 C-18.055336 271.73274139 -16.88435364 271.72427185 -15.67788696 271.71554565 C-12.46485175 271.69613519 -9.25217238 271.69040017 -6.03908896 271.69229317 C-3.3553263 271.69241282 -0.67161805 271.6838506 2.01212949 271.67551565 C8.34625794 271.65627201 14.68025462 271.65340052 21.0144043 271.66015625 C27.54302625 271.66679159 34.07108243 271.64395614 40.59958965 271.60684252 C46.20822315 271.57611826 51.81667495 271.56478859 57.4253909 271.56867933 C60.77369913 271.57074488 64.12121689 271.56306168 67.46950722 271.54078674 C71.20677182 271.51866465 74.9426719 271.52826759 78.67993164 271.54589844 C79.78508621 271.53263519 80.89024078 271.51937195 82.02888489 271.50570679 C90.39708434 271.59748289 90.39708434 271.59748289 94.06942749 274.5512085 C96.34055288 277.07195636 97.54378534 278.84791367 98.65917969 282.02050781 C99.17013184 283.42913086 99.17013184 283.42913086 99.69140625 284.86621094 C100.03526367 285.87103516 100.37912109 286.87585938 100.73339844 287.91113281 C101.10948242 288.95720703 101.48556641 290.00328125 101.87304688 291.08105469 C103.07500958 294.43458051 104.250554 297.79645254 105.42089844 301.16113281 C106.61363539 304.57227332 107.80964859 307.98210164 109.01538086 311.38867188 C109.76695283 313.51714655 110.50855941 315.64917531 111.23852539 317.78515625 C114.65098873 328.40251489 114.65098873 328.40251489 122.38777161 335.73652649 C127.06222695 337.66243068 131.58298715 337.60122657 136.57885742 337.59350586 C137.5747438 337.60369751 138.57063019 337.61388916 139.59669495 337.62438965 C142.87018511 337.65444958 146.1433823 337.66377507 149.41699219 337.67285156 C151.69386258 337.6897034 153.9707237 337.70785432 156.24757385 337.72724915 C162.22664492 337.77470019 168.20567837 337.8045414 174.18487549 337.83068848 C180.29162014 337.86051855 186.39823528 337.90704054 192.50488281 337.95214844 C204.4768202 338.03812598 216.44878429 338.1054961 228.42089844 338.16113281 C228.42089844 338.49113281 228.42089844 338.82113281 228.42089844 339.16113281 C214.9473507 339.20745442 201.47382188 339.24300118 188.00021076 339.26475716 C181.7440084 339.27519843 175.48786048 339.28936402 169.23168945 339.31201172 C163.19519197 339.33372766 157.15874689 339.34569885 151.12221336 339.3508873 C148.81810875 339.35458528 146.51400703 339.36180641 144.2099247 339.37259293 C140.98502 339.38709107 137.76033239 339.38911143 134.53540039 339.38818359 C133.58089996 339.39537415 132.62639954 339.4025647 131.64297485 339.40997314 C125.64610037 339.39127881 121.61474597 338.98042101 116.85839844 335.03613281 C110.61895677 327.67679136 108.2778598 318.18472405 105.35839844 309.16113281 C100.77529259 294.77102184 100.77529259 294.77102184 95.10839844 280.78613281 C94.74101562 279.95339844 94.37363281 279.12066406 93.99511719 278.26269531 C91.76753129 275.28889578 90.03705544 275.06146132 86.42089844 274.16113281 C82.94062777 273.87890841 79.47457315 273.88781571 75.984375 273.90234375 C74.42707672 273.89708679 74.42707672 273.89708679 72.83831787 273.89172363 C69.4126513 273.88293533 65.98719205 273.88874707 62.56152344 273.89550781 C60.17266806 273.89415992 57.78381294 273.89221835 55.3949585 273.88970947 C50.3882791 273.88676179 45.38167109 273.89104298 40.375 273.90039062 C33.97517302 273.91176015 27.57551426 273.90523919 21.17569351 273.8932457 C16.2410151 273.88599644 11.30637612 273.88832952 6.37169647 273.89350128 C4.01311981 273.89483059 1.65453951 273.89321539 -0.7040329 273.88854218 C-4.01111741 273.88342931 -7.3179352 273.89125499 -10.625 273.90234375 C-11.58950073 273.89829529 -12.55400146 273.89424683 -13.54772949 273.89007568 C-19.61652875 273.92752998 -25.78640764 274.19166622 -31.57910156 276.16113281 C-33.7366942 278.65374274 -33.7366942 278.65374274 -34.56738281 281.95410156 C-34.96111084 283.13528564 -35.35483887 284.31646973 -35.76049805 285.53344727 C-36.13376221 286.7924585 -36.50702637 288.05146973 -36.89160156 289.34863281 C-37.30571715 290.63530618 -37.7237811 291.92071535 -38.14575195 293.20483398 C-39.33184044 296.84435385 -40.45417983 300.50224332 -41.57910156 304.16113281 C-42.33956469 306.49532032 -43.11612179 308.82299912 -43.90209961 311.14868164 C-44.46513493 312.82078695 -45.00569326 314.50041716 -45.54394531 316.18066406 C-46.72669299 319.58608473 -48.14413875 322.85497848 -49.57910156 326.16113281 C-50.09112394 327.55260102 -50.59380246 328.94762051 -51.07910156 330.34863281 C-52.19876819 333.35773687 -53.32230143 335.81029934 -55.57910156 338.16113281 C-58.88150337 339.26193341 -61.49426063 339.36823061 -64.97363281 339.47753906 C-65.62133133 339.49845612 -66.26902985 339.51937317 -66.93635559 339.54092407 C-69.08797491 339.60779176 -71.23970162 339.66654376 -73.39160156 339.72363281 C-74.1305365 339.74414703 -74.86947144 339.76466125 -75.63079834 339.78579712 C-87.31910157 340.10418784 -99.00871506 340.28913745 -110.70126343 340.33737183 C-112.35852798 340.34482833 -114.01578153 340.35546529 -115.67300415 340.36941528 C-118.00899425 340.38734694 -120.34461299 340.39144277 -122.68066406 340.39160156 C-123.36272415 340.39874176 -124.04478424 340.40588196 -124.74751282 340.41323853 C-130.13763016 340.38816453 -135.7783352 339.78738425 -140.51660156 337.03613281 C-142.37842384 333.75056409 -142.86851134 330.85978972 -142.57910156 327.16113281 C-141.01275133 321.78979907 -138.76998057 316.73541459 -136.42382812 311.66381836 C-133.52896474 305.39327808 -130.95254142 299.08289548 -128.57910156 292.59863281 C-127.80020323 290.49798292 -127.02018617 288.39774762 -126.23925781 286.29785156 C-125.81789551 285.16395996 -125.3965332 284.03006836 -124.96240234 282.86181641 C-122.34722692 275.86555288 -119.68316427 268.88794175 -117.01660156 261.91113281 C-116.73671387 261.17833099 -116.45682617 260.44552917 -116.16845703 259.69052124 C-112.56954662 250.27398883 -108.90549639 240.88857007 -105.12060547 231.54492188 C-102.82544463 225.85470661 -100.74920798 220.11348562 -98.72363281 214.32128906 C-97.22826865 210.19245082 -95.53078896 206.16422352 -93.81738281 202.12207031 C-91.88865436 197.51015811 -90.11609959 192.84106074 -88.34179688 188.16796875 C-87.46266405 185.85475753 -86.57955433 183.54308172 -85.69628906 181.23144531 C-85.01128283 179.43721662 -84.32638962 177.64294478 -83.64160156 175.84863281 C-83.29726074 174.94653076 -82.95291992 174.04442871 -82.59814453 173.11499023 C-81.01644941 168.96369367 -79.44330136 164.8100176 -77.90722656 160.64160156 C-75.45463342 153.99143521 -72.86935654 147.48263863 -69.86035156 141.05957031 C-67.41036337 135.51721898 -65.39481148 129.80187653 -63.30224609 124.1171875 C-62.22659253 121.20762088 -61.12480428 118.30844024 -60.01660156 115.41113281 C-59.6646875 114.48816406 -59.31277344 113.56519531 -58.95019531 112.61425781 C-57.7620388 109.62186363 -56.52186002 106.6608567 -55.26660156 103.69628906 C-52.59214106 97.29914173 -50.19894017 90.8144011 -47.84442139 84.29376221 C-44.41241876 74.7953261 -40.92449929 65.33681711 -37.10644531 55.98535156 C-34.98108935 50.72666369 -33.00767033 45.40923088 -31.01660156 40.09863281 C-30.62617676 39.05771484 -30.23575195 38.01679688 -29.83349609 36.94433594 C-27.76726349 31.41213643 -25.76225682 25.86606044 -23.82910156 20.28613281 C-18.68406961 5.85537539 -18.68406961 5.85537539 -14.01660156 2.09863281 C-9.29657511 0.28323802 -5.03473502 0.00790735 0 0 Z " fill="#F3F9FB" transform="translate(389.5791015625,341.8388671875)"/>
<path d="M0 0 C1.1127832 0.01441132 1.1127832 0.01441132 2.24804688 0.02911377 C4.6937838 0.06202633 7.13933776 0.10238795 9.58496094 0.14282227 C11.28317627 0.16713096 12.98139832 0.19097414 14.67962646 0.21437073 C19.14473134 0.27713712 23.60971688 0.3462248 28.07470703 0.41662598 C32.63275732 0.48737671 37.19089207 0.55215333 41.74902344 0.61743164 C50.68922043 0.746348 59.62930276 0.88194206 68.56933594 1.02172852 C68.56933594 1.35172852 68.56933594 1.68172852 68.56933594 2.02172852 C67.61577713 2.02981537 66.66221832 2.03790222 65.67976379 2.04623413 C56.68963913 2.12374739 47.69966483 2.21149981 38.70973682 2.3092556 C34.08801584 2.35918332 29.46631733 2.40551371 24.84448242 2.44360352 C20.38344989 2.48050079 15.92260692 2.52687288 11.46173668 2.57979202 C9.76054907 2.59831235 8.05932086 2.61342903 6.35807228 2.62507248 C3.97362518 2.64197541 1.58960997 2.67101987 -0.79467773 2.70288086 C-1.84772346 2.70612114 -1.84772346 2.70612114 -2.92204285 2.70942688 C-6.84355142 2.77628723 -9.92821216 3.21589179 -13.43066406 5.02172852 C-19.12537021 12.30833267 -21.72612128 23.4114621 -24.92709351 32.0284729 C-26.79850513 37.0634932 -28.69036569 42.09084345 -30.57910156 47.11938477 C-30.97528183 48.17552475 -31.3714621 49.23166473 -31.77964783 50.31980896 C-36.16955758 62.0128845 -40.63388998 73.67706362 -45.11816406 85.33422852 C-45.52874054 86.4019046 -45.93931702 87.46958069 -46.36233521 88.5696106 C-54.05775153 108.56720653 -61.88184577 128.51367551 -69.73266602 148.45068359 C-76.36109961 165.28384776 -82.93827378 182.13561544 -89.43066406 199.02172852 C-89.76066406 199.02172852 -90.09066406 199.02172852 -90.43066406 199.02172852 C-90.11455276 192.59413212 -88.73725476 188.09605148 -85.94238281 182.33813477 C-84.11228216 178.3232628 -82.61269898 174.23327991 -81.11816406 170.08422852 C-77.75726681 160.80609009 -74.1336133 151.65005446 -70.43359375 142.50268555 C-59.8152939 116.23609279 -49.23818575 89.94524007 -39.96704102 63.16918945 C-38.05545764 57.69055437 -35.96756401 52.33098742 -33.67675781 46.99829102 C-32.17519336 43.41148187 -30.79310812 39.7882483 -29.43066406 36.14672852 C-29.17736328 35.47013184 -28.9240625 34.79353516 -28.66308594 34.09643555 C-27.44580804 30.82245867 -26.25536373 27.541813 -25.11425781 24.24047852 C-18.75126587 5.88952997 -18.75126587 5.88952997 -13.86816406 1.95922852 C-9.16254195 0.14937386 -5.01934692 -0.09332596 0 0 Z " fill="#F0F7FA" transform="translate(389.4306640625,341.978271484375)"/>
<path d="M0 0 C2.63576362 0.88219587 3.78670536 1.68048959 5.33866882 4.0052948 C8.23266157 10.15485214 10.79938957 16.35972874 13.14453125 22.73828125 C13.51801193 23.73973679 13.89149261 24.74119232 14.27629089 25.772995 C15.46026635 28.95091095 16.63664914 32.13157011 17.8125 35.3125 C18.974807 38.441377 20.13869946 41.56965924 21.30319214 44.69772339 C22.0700603 46.76008742 22.83498598 48.82317482 23.59793091 50.88699341 C25.4721963 55.94787785 27.37792662 60.99223828 29.35693359 66.01318359 C29.91679207 67.44346138 29.91679207 67.44346138 30.48796082 68.90263367 C31.19104375 70.69250312 31.90221039 72.47922707 32.6230011 74.26203918 C34.31932834 78.59428224 35.72914518 82.27185916 35 87 C33.87286377 88.63949585 33.87286377 88.63949585 32 90 C29.14707947 90.3742218 29.14707947 90.3742218 25.63256836 90.37231445 C23.66053688 90.38165764 23.66053688 90.38165764 21.64866638 90.39118958 C20.21238832 90.38250242 18.77611395 90.37318453 17.33984375 90.36328125 C15.86918641 90.36276265 14.39852836 90.36328034 12.9278717 90.36479187 C9.84691001 90.36470217 6.76621012 90.35427642 3.68530273 90.33618164 C-0.26830287 90.3134744 -4.22152659 90.31295412 -8.17517948 90.31969929 C-11.21117054 90.32303666 -14.24707415 90.31641394 -17.28304863 90.30657005 C-18.74112936 90.30271523 -20.1992198 90.301571 -21.65730476 90.3031559 C-23.69221294 90.30352575 -25.72710842 90.28944717 -27.76196289 90.2746582 C-28.92095596 90.27005081 -30.07994904 90.26544342 -31.27406311 90.26069641 C-34 90 -34 90 -36 88 C-35.80017575 80.79800083 -33.1842215 74.67358476 -30.5 68.0625 C-30.02804199 66.88187988 -29.55608398 65.70125977 -29.06982422 64.48486328 C-27.398386 60.31565784 -25.70023592 56.15752794 -24 52 C-23.66069458 51.16889709 -23.32138916 50.33779419 -22.97180176 49.48150635 C-20.36859828 43.10754034 -17.75053594 36.73979583 -15.125 30.375 C-14.57622192 29.04143967 -14.57622192 29.04143967 -14.01635742 27.68093872 C-3.28607448 1.64303724 -3.28607448 1.64303724 0 0 Z M0 2 C-4.23462586 6.38064744 -5.90118343 11.41059842 -8 17 C-8.82710599 19.10662229 -9.66116965 21.21051868 -10.5 23.3125 C-10.74032959 23.91513672 -10.98065918 24.51777344 -11.22827148 25.13867188 C-13.8164915 31.59786664 -16.47981588 38.02607776 -19.14242554 44.4548645 C-19.93593421 46.37121856 -20.72841807 48.28799394 -21.52075195 50.20483398 C-23.75834082 55.61438612 -26.00131194 61.02098315 -28.296875 66.40625 C-28.78619507 67.56374756 -28.78619507 67.56374756 -29.28540039 68.74462891 C-29.86102786 70.10401329 -30.44291872 71.46077403 -31.03295898 72.81396484 C-32.73769093 76.85866453 -33.7303627 80.61178504 -34 85 C-32.27773504 88.24849977 -32.27773504 88.24849977 -29 89 C-27.14123226 89.09519247 -25.27917126 89.13073045 -23.41796875 89.1328125 C-22.27183105 89.13498779 -21.12569336 89.13716309 -19.94482422 89.1394043 C-18.08494873 89.13227417 -18.08494873 89.13227417 -16.1875 89.125 C-14.27735107 89.11883667 -14.27735107 89.11883667 -12.32861328 89.11254883 C-8.21879816 89.08920046 -4.10955205 89.05073814 0 89 C0.70175354 88.99139954 1.40350708 88.98279907 2.12652588 88.97393799 C6.29637561 88.91884985 10.46499755 88.84107601 14.63388062 88.73553467 C16.60183703 88.68805879 18.57009708 88.65376508 20.53833008 88.61962891 C21.73482178 88.58401855 22.93131348 88.5484082 24.1640625 88.51171875 C25.22061035 88.48553467 26.2771582 88.45935059 27.36572266 88.43237305 C30.02932922 88.20569655 30.02932922 88.20569655 31.8605957 86.59008789 C33.17863557 85.06108662 33.17863557 85.06108662 33.06640625 83.046875 C31.58208512 76.28113219 29.14858333 70.01279011 26.5 63.63671875 C25.30196445 60.73210651 24.17858678 57.83350932 23.125 54.875 C21.15427079 49.36855073 19.0811202 43.90294301 17 38.4375 C16.66758301 37.56270996 16.33516602 36.68791992 15.99267578 35.78662109 C14.32735832 31.41977043 12.63393822 27.06681821 10.890625 22.73046875 C9.44499484 19.1337211 8.05986395 15.52390671 6.75 11.875 C6.41484375 10.94429688 6.0796875 10.01359375 5.734375 9.0546875 C5.49203125 8.37664062 5.2496875 7.69859375 5 7 C4.34 7 3.68 7 3 7 C2.34 5.35 1.68 3.7 1 2 C0.67 2 0.34 2 0 2 Z " fill="#F3F9FB" transform="translate(421,454)"/>
<path d="M0 0 C0.97535202 -0.00365067 1.95070404 -0.00730133 2.95561218 -0.01106262 C6.17761753 -0.01915696 9.39911717 -0.00554314 12.62109375 0.0090332 C14.89095052 0.00955294 17.16080774 0.00903086 19.43066406 0.00752258 C24.20205365 0.00761232 28.97327441 0.01802709 33.74462891 0.03613281 C39.7656121 0.05851341 45.7863448 0.05921971 51.80735779 0.05290031 C93.96237624 0.01898454 93.96237624 0.01898454 113.55859375 1.2043457 C114.7796582 1.2732048 116.00072266 1.3420639 117.25878906 1.41300964 C122.88593633 1.81814136 127.26976016 2.29234831 132.05859375 5.37231445 C127.67958123 6.69809259 123.96326213 5.77204039 119.55810547 4.96191406 C106.42824207 2.79162389 93.34104404 2.91845844 80.06640625 2.9387207 C78.08990057 2.93530788 76.11339471 2.9318842 74.13689125 2.92736763 C67.96116938 2.91346519 61.78558638 2.91477184 55.60986328 2.92626953 C49.26102341 2.93782876 42.91260214 2.92351324 36.56381714 2.89687306 C30.41280403 2.87203983 24.26198422 2.86953504 18.11092758 2.87598991 C15.50900445 2.87614312 12.90707318 2.8700994 10.3051796 2.85769844 C6.68246111 2.84283948 3.06067725 2.8534235 -0.56201172 2.87060547 C-1.63110779 2.8609375 -2.70020386 2.85126953 -3.80169678 2.84130859 C-9.80738289 2.90102361 -13.38867459 3.31845279 -17.94140625 7.37231445 C-19.19979182 9.88908559 -19.14959598 11.78524733 -19.2578125 14.59887695 C-19.29970703 15.63012695 -19.34160156 16.66137695 -19.38476562 17.72387695 C-19.44374023 19.34422852 -19.44374023 19.34422852 -19.50390625 20.99731445 C-19.54708984 22.0852832 -19.59027344 23.17325195 -19.63476562 24.29418945 C-19.74105155 26.98676615 -19.84308682 29.67943699 -19.94140625 32.37231445 C-20.60140625 32.04231445 -21.26140625 31.71231445 -21.94140625 31.37231445 C-23.07688775 24.1842229 -24.11802952 15.46145553 -21.94140625 8.37231445 C-16.28108324 0.71423038 -8.82750179 -0.07431521 0 0 Z " fill="#E2F0F7" transform="translate(516.94140625,341.627685546875)"/>
<path d="M0 0 C1.24716797 0.06123047 2.49433594 0.12246094 3.77929688 0.18554688 C5.07287109 0.27513672 6.36644531 0.36472656 7.69921875 0.45703125 C9.01212891 0.52728516 10.32503906 0.59753906 11.67773438 0.66992188 C14.91612915 0.84656159 18.15119022 1.04723335 21.38671875 1.26953125 C19.38671875 3.26953125 19.38671875 3.26953125 16.82055664 3.41723633 C15.7608667 3.37493896 14.70117676 3.3326416 13.609375 3.2890625 C11.87977539 3.24555664 11.87977539 3.24555664 10.11523438 3.20117188 C7.67471696 3.12185831 5.23455401 3.03074396 2.79492188 2.92773438 C1.06338867 2.8900293 1.06338867 2.8900293 -0.703125 2.8515625 C-1.76394287 2.81264893 -2.82476074 2.77373535 -3.91772461 2.73364258 C-6.77133143 2.9949055 -6.77133143 2.9949055 -8.25920582 5.39055157 C-9.86125281 8.79675823 -9.98299735 11.11200699 -9.9740448 14.86909485 C-9.97660807 15.51856825 -9.97917135 16.16804164 -9.9818123 16.83719605 C-9.98673919 19.00540774 -9.97027637 21.17291732 -9.95385742 23.34106445 C-9.95301091 24.89843225 -9.95348677 26.45580124 -9.95518494 28.01316833 C-9.95604537 32.23598317 -9.93841186 36.45854215 -9.91746306 40.68129754 C-9.89870429 45.09620888 -9.89694645 49.51112613 -9.89338684 53.92607117 C-9.88406403 62.28412948 -9.85944704 70.64207001 -9.82933837 79.00007647 C-9.79580173 88.51631881 -9.7793102 98.03256679 -9.76425207 107.54885352 C-9.7328977 127.12247849 -9.68013259 146.69599745 -9.61328125 166.26953125 C-11.26328125 166.59953125 -12.91328125 166.92953125 -14.61328125 167.26953125 C-15.27328125 165.28953125 -15.93328125 163.30953125 -16.61328125 161.26953125 C-15.62328125 161.59953125 -14.63328125 161.92953125 -13.61328125 162.26953125 C-13.61328125 162.92953125 -13.61328125 163.58953125 -13.61328125 164.26953125 C-12.95328125 164.26953125 -12.29328125 164.26953125 -11.61328125 164.26953125 C-11.61789021 163.45469678 -11.62249918 162.63986231 -11.62724781 161.80033588 C-11.73764233 141.97879217 -11.82039661 122.15730139 -11.87234211 102.33551502 C-11.89812994 92.74985023 -11.9332915 83.16439056 -11.99047852 73.57885742 C-12.04029579 65.22464143 -12.07256805 56.87057399 -12.08372372 48.5162136 C-12.09024536 44.09206644 -12.10558479 39.66834428 -12.14193153 35.24433327 C-12.17586473 31.08036357 -12.18633977 26.916994 -12.17881966 22.75289917 C-12.18019542 21.22464932 -12.1901444 19.69637944 -12.20930862 18.16824913 C-12.23420773 16.08044924 -12.22820156 13.99491149 -12.21455383 11.90705872 C-12.2191628 10.73914701 -12.22377176 9.57123529 -12.22852039 8.36793232 C-10.86785235 1.51548256 -6.47331288 -0.38426058 0 0 Z " fill="#FDFDFD" transform="translate(591.61328125,420.73046875)"/>
<path d="M0 0 C1.1127832 0.01441132 1.1127832 0.01441132 2.24804688 0.02911377 C4.6937838 0.06202633 7.13933776 0.10238795 9.58496094 0.14282227 C11.28317627 0.16713096 12.98139832 0.19097414 14.67962646 0.21437073 C19.14473134 0.27713712 23.60971688 0.3462248 28.07470703 0.41662598 C32.63275732 0.48737671 37.19089207 0.55215333 41.74902344 0.61743164 C50.68922043 0.746348 59.62930276 0.88194206 68.56933594 1.02172852 C68.56933594 1.35172852 68.56933594 1.68172852 68.56933594 2.02172852 C67.61577713 2.02981537 66.66221832 2.03790222 65.67976379 2.04623413 C56.68963913 2.12374739 47.69966483 2.21149981 38.70973682 2.3092556 C34.08801584 2.35918332 29.46631733 2.40551371 24.84448242 2.44360352 C20.38344989 2.48050079 15.92260692 2.52687288 11.46173668 2.57979202 C9.76054907 2.59831235 8.05932086 2.61342903 6.35807228 2.62507248 C3.97362518 2.64197541 1.58960997 2.67101987 -0.79467773 2.70288086 C-1.84772346 2.70612114 -1.84772346 2.70612114 -2.92204285 2.70942688 C-6.83558138 2.77615134 -10.01049407 3.04812865 -13.43066406 5.02172852 C-14.96005527 7.02704501 -14.96005527 7.02704501 -15.98901367 9.49243164 C-16.40206757 10.3916333 -16.81512146 11.29083496 -17.24069214 12.21728516 C-19.10233217 16.60466935 -20.84325025 21.02076205 -22.49707031 25.49047852 C-23.03822731 26.93191223 -23.03822731 26.93191223 -23.59031677 28.40246582 C-24.72973116 31.44032848 -25.86173731 34.48088305 -26.99316406 37.52172852 C-28.12969126 40.5619811 -29.26777093 43.60164627 -30.40672302 46.64099121 C-31.11082824 48.52144295 -31.8133076 50.40250464 -32.5138092 52.28430176 C-34.73370657 58.23237193 -37.04791217 64.13702571 -39.43066406 70.02172852 C-40.09066406 69.69172852 -40.75066406 69.36172852 -41.43066406 69.02172852 C-38.71743653 60.5805762 -35.5673137 52.31171797 -32.43066406 44.02172852 C-31.40786552 41.31413212 -30.38728705 38.60571035 -29.36816406 35.89672852 C-29.11905273 35.23648682 -28.86994141 34.57624512 -28.61328125 33.89599609 C-26.96280246 29.50211005 -25.40426271 25.08221336 -23.86816406 20.64672852 C-18.5238171 5.70646145 -18.5238171 5.70646145 -13.86816406 1.95922852 C-9.16254195 0.14937386 -5.01934692 -0.09332596 0 0 Z " fill="#E2F0F6" transform="translate(389.4306640625,341.978271484375)"/>
<path d="M0 0 C1.09561525 3.28684575 0.95937109 3.86224428 -0.109375 6.984375 C-0.36976563 7.75523437 -0.63015625 8.52609375 -0.8984375 9.3203125 C-1.17945313 10.12210938 -1.46046875 10.92390625 -1.75 11.75 C-2.01554687 12.53632812 -2.28109375 13.32265625 -2.5546875 14.1328125 C-3.77287301 17.69275267 -5.06654847 21.15466667 -6.5546875 24.61328125 C-8.07319957 28.17152439 -9.22953196 31.74355778 -10.375 35.4375 C-12.2233868 41.22272918 -14.4643188 46.05004632 -18 51 C-18.66 50.67 -19.32 50.34 -20 50 C-19.58476074 49.26632202 -19.58476074 49.26632202 -19.16113281 48.51782227 C-14.30365838 39.41447537 -11.15277536 29.64805166 -7.75 19.9375 C-6.79756848 17.23229656 -5.84329257 14.52777356 -4.88580322 11.82435608 C-4.29382351 10.15169973 -3.70497654 8.4779307 -3.11956787 6.80296326 C-1.11143868 1.11143868 -1.11143868 1.11143868 0 0 Z " fill="#EFF7FA" transform="translate(352,629)"/>
<path d="M0 0 C0.99 0.33 1.98 0.66 3 1 C2.50628906 1.33773438 2.01257813 1.67546875 1.50390625 2.0234375 C0.86324219 2.46945312 0.22257812 2.91546875 -0.4375 3.375 C-1.07558594 3.81585938 -1.71367187 4.25671875 -2.37109375 4.7109375 C-4.13740928 5.92160853 -4.13740928 5.92160853 -5 8 C-5.15266612 9.73868744 -5.24932596 11.48247501 -5.31640625 13.2265625 C-5.35830078 14.2578125 -5.40019531 15.2890625 -5.44335938 16.3515625 C-5.50233398 17.97191406 -5.50233398 17.97191406 -5.5625 19.625 C-5.60568359 20.71296875 -5.64886719 21.8009375 -5.69335938 22.921875 C-5.7996453 25.6144517 -5.90168057 28.30712253 -6 31 C-6.66 30.67 -7.32 30.34 -8 30 C-9.1299227 22.84709805 -10.21924242 14.04759418 -8 7 C-5.53544346 3.9517327 -3.25012376 2.16674917 0 0 Z " fill="#D3E8F3" transform="translate(503,343)"/>
<path d="M0 0 C3.94120709 0.56302958 6.7508723 1.6791945 10 4 C10 4.66 10 5.32 10 6 C6.00452264 5.38531118 3.22493358 3.34540624 0 1 C0 0.67 0 0.34 0 0 Z " fill="#EAF4F9" transform="translate(649,430)"/>
<path d="M0 0 C0.99 0.33 1.98 0.66 3 1 C3.73046875 3.06640625 3.73046875 3.06640625 4.1875 5.5625 C4.34605469 6.38878906 4.50460937 7.21507812 4.66796875 8.06640625 C4.77753906 8.70449219 4.88710938 9.34257813 5 10 C3.68 9.34 2.36 8.68 1 8 C1.66 7.67 2.32 7.34 3 7 C2.73323796 5.01508358 2.73323796 5.01508358 2 3 C1.01 2.67 0.02 2.34 -1 2 C-0.67 1.34 -0.34 0.68 0 0 Z " fill="#0B81CE" transform="translate(529,507)"/>
<path d="M0 0 C0.33 0 0.66 0 1 0 C0.25 7.625 0.25 7.625 -2 11 C-3.13643966 7.59068103 -2.86747764 6.99664544 -1.5625 3.8125 C-1.13130859 2.73935547 -1.13130859 2.73935547 -0.69140625 1.64453125 C-0.46324219 1.10183594 -0.23507812 0.55914063 0 0 Z " fill="#F8FBFC" transform="translate(687,545)"/>
<path d="M0 0 C4.29718241 1.90985885 7.6891507 4.6891507 11 8 C10.01 8.33 9.02 8.66 8 9 C6.66368764 7.6905332 5.33102075 6.37734515 4 5.0625 C3.2575 4.33160156 2.515 3.60070312 1.75 2.84765625 C0 1 0 1 0 0 Z " fill="#1785CF" transform="translate(665,438)"/>
<path d="M0 0 C0.66 0.33 1.32 0.66 2 1 C1.360625 1.598125 0.72125 2.19625 0.0625 2.8125 C-2.20310389 4.90810337 -2.20310389 4.90810337 -3 8 C-3.66 8 -4.32 8 -5 8 C-4.64950425 4.75791433 -4.43778819 3.38472296 -1.9375 1.1875 C-1.298125 0.795625 -0.65875 0.40375 0 0 Z " fill="#ECF5F9" transform="translate(585,421)"/>
<path d="M0 0 C0.33 0 0.66 0 1 0 C1.36666667 5.5 1.36666667 5.5 -0.375 7.875 C-2 9 -2 9 -4 9 C-3.71125 8.443125 -3.4225 7.88625 -3.125 7.3125 C-1.9586747 4.91505355 -0.9660119 2.48403061 0 0 Z " fill="#ECF4F9" transform="translate(455,535)"/>
<path d="" fill="#FCFFFF" transform="translate(0,0)"/>
</svg>
